<?xml version="1.0" encoding="UTF-8"?>
<svg width="60px" height="80px" viewBox="0 0 60 80" version="1.1" xmlns="http://www.w3.org/2000/svg" xmlns:xlink="http://www.w3.org/1999/xlink">
    <!-- Generator: Sketch 52.6 (67491) - http://www.bohemiancoding.com/sketch -->
    <title>Group 3</title>
    <desc>Created with Sketch.</desc>
    <defs>
        <polygon id="path-1" points="0 0 60 0 60 80 0 80"></polygon>
    </defs>
    <g id="Components" stroke="none" stroke-width="1" fill="none" fill-rule="evenodd">
        <g id="registrace" transform="translate(-750.000000, -501.000000)">
            <g id="Form" transform="translate(490.000000, 443.000000)">
                <g id="Group-4" transform="translate(120.000000, 48.000000)">
                    <g id="Group-3" transform="translate(140.000000, 10.000000)">
                        <mask id="mask-2" fill="white">
                            <use xlink:href="#path-1"></use>
                        </mask>
                        <g id="Clip-2"></g>
                        <path d="M32.3253825,14.2480865 L33.8891913,15.4960078 C32.2533913,17.5518395 26.0648143,24.2574968 15.1054871,24.2574968 L15.1054871,22.2544129 C25.1715901,22.2544129 30.8308984,16.1263115 32.3253825,14.2480865 Z M34.9950562,13.9162422 L33.3365922,12.797186 L34.4277922,11.1733527 L36.0869227,12.2917412 L34.9950562,13.9162422 Z M37.1027985,66.2107538 L39.1025541,66.2107538 L39.1025541,63.5399753 L37.1027985,63.5399753 L37.1027985,66.2107538 Z M37.1027985,76.2261733 L39.1025541,76.2261733 L39.1025541,74.2230894 L37.1027985,74.2230894 L37.1027985,76.2261733 Z M37.1027985,71.5523109 L39.1025541,71.5523109 L39.1025541,68.8815323 L37.1027985,68.8815323 L37.1027985,71.5523109 Z M7.76971703,22.6062879 C7.76971703,1.33754301 29.2077635,-4.94078965 39.3378587,3.84473636 C54.0867227,6.4420685 55.1139305,34.2602301 39.2592017,41.9353799 L38.3899746,40.1319367 C52.167624,33.4609996 52.3462688,7.85624573 38.4473009,5.73097371 C29.039784,-2.69666798 9.76947262,3.30857757 9.76947262,22.6062879 C9.76947262,30.0697786 16.2480141,38.9608003 21.2694004,40.4050238 L20.7174679,42.3299875 C14.4249036,40.520535 7.76971703,30.381592 7.76971703,22.6062879 Z M40.6023708,60.2876347 L36.5168702,56.1953343 L42.5847952,50.11731 C43.4886847,50.578687 45.3191277,51.4259915 47.56352,53.3148996 L40.6023708,60.2876347 Z M27.4373132,77.9374747 L27.4373132,65.0349435 C29.5790514,65.7086474 31.8694382,65.6966289 34.1031652,64.8353029 L34.1031652,77.8787176 C30.5289354,78.0449735 28.9751253,77.9802071 27.4373132,77.9374747 Z M12.2944973,54.0179821 L21.1600804,62.897653 L25.4375576,58.6130565 L25.4375576,77.8606898 C21.1840775,77.6476952 17.0079213,77.1362411 12.9304196,76.3203183 L12.9304196,72.1178482 L10.930664,72.1178482 L10.930664,75.8856491 C8.04968282,75.2346468 5.2140294,74.4494379 2.4450345,73.49597 C4.22681672,67.3217977 5.58331759,60.0679632 12.2944973,54.0179821 Z M18.7170457,49.878943 L25.0236082,56.1953343 L21.1600804,60.0652924 L13.840975,52.7340053 C15.7640733,51.2770956 17.1052427,50.6741673 18.7170457,49.878943 Z M24.3016965,49.4249107 L24.3016965,42.5489913 C27.8192665,45.5856665 32.2680561,45.3245979 35.5629867,42.0522265 L35.5629867,49.4249107 L37.5627423,49.4249107 L37.5627423,47.554698 L40.7110242,49.161839 L34.1031652,55.7806959 L34.1031652,62.6405906 C31.2448479,64.0400785 28.7258224,63.4324764 27.4373132,62.9136777 L27.4373132,55.7806959 L20.6114808,48.9441705 L22.3019409,48.1095522 L22.3019409,49.4249107 L24.3016965,49.4249107 Z M18.8523625,28.70234 C29.7270334,27.3669507 35.9029452,20.5063883 37.6467321,18.2716144 C38.7292664,18.9566691 40.9576607,21.2081354 40.5270467,27.8964325 L40.5177145,27.8964325 C40.5197143,28.0306391 40.5043828,28.3104032 40.494384,28.4305882 L40.5123818,28.4325913 C40.4163936,31.1854963 39.2498695,35.124227 37.1354612,37.5085645 L34.3418027,40.4524301 C31.5341458,43.4109851 27.8119341,43.4223359 24.9942785,40.4524301 C22.1732899,37.4798536 19.1643244,35.1409193 18.8523625,28.70234 Z M44.0032885,48.5929631 L37.5627423,45.3065702 L37.5627423,39.9643454 L38.6072813,38.8633169 C43.9292975,32.8660837 44.6378776,17.6433137 36.8788259,15.8979599 C32.806657,21.9192301 24.5963271,26.9282753 15.1054871,26.9282753 L15.1054871,28.9313592 C15.703414,28.9313592 16.2860095,28.9093253 16.8612725,28.8772759 C17.2258946,35.7491891 20.5748186,38.7024025 22.3019409,40.5225381 L22.3019409,45.8767814 C16.4313251,48.7732407 6.30522936,52.2719606 2.14173823,67.2403389 L0,74.7545744 C18.5070714,81.3747667 37.579407,81.422173 54.2220395,76.6147716 L53.6674406,74.689808 C52.1262957,75.1351603 50.5651531,75.5237586 48.9926787,75.8796398 L48.9926787,72.1178482 L46.9929231,72.1178482 L46.9929231,76.3069644 C43.4266923,77.0213976 39.7918032,77.5174948 36.1029208,77.7738895 L36.1029208,58.6130565 L40.6023708,63.1199953 L49.0353401,54.6729905 C54.9432847,60.5480356 56.1944651,66.8931377 58.0729022,73.648872 L60,73.1113779 C58.2702114,66.8918023 55.8965015,54.4626667 44.0032885,48.5929631 Z" id="Fill-1" fill="#BEBEBE" mask="url(#mask-2)"></path>
                    </g>
                </g>
            </g>
        </g>
    </g>
</svg>