<?xml version="1.0" encoding="UTF-8"?>
<svg width="60px" height="80px" viewBox="0 0 60 80" version="1.1" xmlns="http://www.w3.org/2000/svg" xmlns:xlink="http://www.w3.org/1999/xlink">
    <!-- Generator: Sketch 52.6 (67491) - http://www.bohemiancoding.com/sketch -->
    <title>Group 3</title>
    <desc>Created with Sketch.</desc>
    <defs>
        <polygon id="path-1" points="0 0 60 0 60 80 0 80"></polygon>
    </defs>
    <g id="Components" stroke="none" stroke-width="1" fill="none" fill-rule="evenodd">
        <g id="registrace" transform="translate(-630.000000, -501.000000)">
            <g id="Form" transform="translate(490.000000, 443.000000)">
                <g id="Group-4" transform="translate(120.000000, 48.000000)">
                    <g id="Group-3" transform="translate(20.000000, 10.000000)">
                        <mask id="mask-2" fill="white">
                            <use xlink:href="#path-1"></use>
                        </mask>
                        <g id="Clip-2"></g>
                        <path d="M42.2993157,20.4693663 L44.1114357,20.9036818 L43.6506642,23.0477876 L41.8385442,22.6134721 L42.2993157,20.4693663 Z M15.3460431,19.6177417 C14.7514993,14.751315 16.1548704,9.98954267 19.2985209,6.20694248 C30.3403144,-7.07565515 51.1146664,2.65065729 49.1241833,19.4411375 L47.223501,35.4709115 L45.3804151,35.226936 L47.2804781,19.1971621 C47.787079,14.919416 46.5441108,10.7430539 43.7776241,7.43793912 C33.881566,-4.3853846 15.3677192,4.47360502 17.1885096,19.3659172 L18.9405559,33.6970204 L17.0987087,33.9481909 L15.3460431,19.6177417 Z M44.2805091,19.1991243 L42.4374232,18.955803 C43.2128075,12.401171 37.8835891,6.70862921 31.3838627,6.87345979 L31.3330787,4.91249915 C38.8150411,4.6639451 45.2119611,11.3422 44.2805091,19.1991243 Z M1.78672805,72.1417911 L0,71.6015131 C1.29932598,66.8155395 3.21425254,56.8086226 12.4556931,49.6901654 L13.5506446,51.2756786 C5.06477018,57.8113419 3.24274109,66.7762941 1.78672805,72.1417911 Z M15.6885251,49.7948197 L14.7477834,48.103344 C15.5516562,47.6042736 16.39083,47.1451027 17.2423901,46.7362967 L18.0103426,48.5239236 C17.2176175,48.9039497 16.4360401,49.3317243 15.6885251,49.7948197 Z M46.3948555,55.9661552 L47.4476936,57.5830647 L32.0979346,68.7163239 L16.2099896,57.3986114 L17.2492026,55.7725446 L32.0886448,66.3426327 L46.3948555,55.9661552 Z M49.4610914,76.0362406 L49.4610914,72.0855394 L47.603142,72.0855394 L47.603142,76.4470089 C36.8004046,78.6964231 25.466913,78.4727244 15.5597073,76.2939519 L15.5597073,72.4897668 L13.7017578,72.4897668 L13.7017578,75.8432842 C11.1254013,75.2009682 8.62955585,74.4356834 6.26252826,73.5193038 C7.46833744,69.0799977 9.28045747,59.1509175 18.6748692,53.8724143 L32.0626335,63.4077326 L45.2639837,53.8325149 C54.5679751,59.0109423 56.4284019,68.6561476 57.7432107,73.4918321 C55.1185475,74.5122119 52.3409131,75.3533711 49.4610914,76.0362406 Z M26.1122408,52.242423 L26.1122408,45.6707848 C30.0678152,49.0177613 34.3584397,48.7639745 37.8879244,45.7760932 L37.8879244,52.242423 L39.7458738,52.242423 L39.7458738,51.1481311 L43.3218072,52.8611918 L32.0527245,61.0346955 L20.6201422,52.8906258 L24.2542913,51.1487852 L24.2542913,52.242423 L26.1122408,52.242423 Z M21.7355312,35.4578297 C21.7355312,26.0193166 21.0041185,21.6879353 24.9652667,17.5410072 C25.3721576,19.6890374 26.5166545,23.087687 29.7278104,24.3827845 L30.5477854,24.7137538 L31.6377824,22.1464521 C33.196602,23.8752109 36.6028427,26.7159221 42.2764009,26.9337339 C42.2764009,39.0716747 43.157069,38.8008816 36.4300534,44.4940776 C33.8190151,46.7062086 30.3068713,46.7049004 27.6939751,44.4940776 L25.1324821,42.3270787 C23.0367151,40.5525336 21.7355312,37.9211311 21.7355312,35.4578297 Z M44.9561834,51.4895659 L39.7458738,48.99356 L39.7458738,44.2030077 C45.115967,39.6551227 44.1343504,35.825428 44.1343504,26.912149 C44.417378,26.8944885 44.7059795,26.8709413 44.9989162,26.8408532 L44.8174565,24.8877416 C36.0411226,25.7988885 32.3332748,20.0154282 32.180923,19.7714527 L31.2525676,18.2565812 L29.6051857,22.138603 C26.778006,20.2836049 26.6008815,15.6788141 26.5990235,15.6297573 L26.5525748,13.9238917 L25.1801695,14.8252271 C24.964028,14.9665105 19.8775818,18.3959023 19.8775818,26.0925747 C19.8775818,35.1726466 18.8179313,39.4974871 24.2542913,44.0983534 L24.2542913,48.99356 C19.0526522,51.4862955 9.65204736,54.6527432 5.79680226,68.1178319 L4.005739,74.7149796 C22.2031152,82.06106 43.2957959,81.4651844 60,74.6855456 C58.3606693,68.6528772 56.3144476,56.9302833 44.9561834,51.4895659 Z" id="Fill-1" fill="#BEBEBE" mask="url(#mask-2)"></path>
                    </g>
                </g>
            </g>
        </g>
    </g>
</svg>